Coordinates
version=1
nRows=8
nColumns=40
inDegrees=yes

Units are S.I. units (second, meters, Newtons, ...)
Angles are in degrees.

endheader
time	pelvis_tilt	pelvis_list	pelvis_rotation	pelvis_tx	pelvis_ty	pelvis_tz	hip_flexion_r	hip_adduction_r	hip_rotation_r	knee_angle_r	knee_angle_r_beta	ankle_angle_r	subtalar_angle_r	mtp_angle_r	hip_flexion_l	hip_adduction_l	hip_rotation_l	knee_angle_l	knee_angle_l_beta	ankle_angle_l	subtalar_angle_l	mtp_angle_l	lumbar_extension	lumbar_bending	lumbar_rotation	arm_flex_r	arm_add_r	arm_rot_r	elbow_flex_r	pro_sup_r	wrist_flex_r	wrist_dev_r	arm_flex_l	arm_add_l	arm_rot_l	elbow_flex_l	pro_sup_l	wrist_flex_l	wrist_dev_l
     45.68000000	     -5.73548118	     -5.73228511	      9.90827447	      0.99491192	      0.91493658	      0.44541083	      0.82460691	      2.19954021	    -14.97208275	     19.50889706	     19.50889706	     19.81324666	     -0.34125787	     -1.48658536	     30.59310580	     -4.08043916	      5.71187107	     27.49293853	     27.49293853	      6.01049468	    -11.56015970	      1.77888244	     -8.17285121	      2.25975053	      3.73028305	     58.23529543	    -19.11726356	     -8.30213491	     77.49866358	     45.03880395	      0.00000000	      0.00000000	    -10.39198896	     -9.65466540	     13.10883032	     32.07086979	     43.62207942	      0.00000000	      0.00000000
     45.70057143	     -5.68589351	     -5.88806236	      9.55071940	      0.99606385	      0.91583212	      0.44054409	      0.58704295	      1.94461777	    -14.81356077	     20.04347129	     20.04347129	     19.35985547	     -0.18934522	     -1.51508804	     30.08522090	     -4.09085568	      5.64382127	     27.78049466	     27.78049466	      6.71407536	    -11.86350629	      1.59268177	     -8.20670096	      2.42305024	      3.71922259	     57.55705262	    -18.71772056	     -8.16206101	     77.10801184	     45.04454607	      0.00000000	      0.00000000	     -9.50389944	     -9.95891386	     13.01664847	     32.37293886	     43.65134264	      0.00000000	      0.00000000
     45.72114286	     -5.66607739	     -5.74790587	      9.11484448	      0.99687604	      0.91641887	      0.43553847	      0.84868402	      1.11594131	    -14.85257803	     21.53871946	     21.53871946	     18.50721419	      0.07573035	     -4.13992736	     29.70598318	     -3.85948052	      5.17719376	     28.39684251	     28.39684251	      8.16414438	    -11.68124644	      3.26657086	     -8.05314398	      2.30736471	      3.46454869	     57.68911587	    -17.73933662	     -8.58794248	     73.43051453	     45.20150389	      0.00000000	      0.00000000	     -8.99014325	    -10.46200430	     12.65397129	     33.41752378	     43.84162801	      0.00000000	      0.00000000
     45.74171429	     -5.43293243	     -5.94370144	      8.75332515	      0.99797785	      0.91760172	      0.43068538	      0.80500897	      0.82848812	    -14.62394299	     22.74834510	     22.74834510	     17.95533012	      0.06001418	     -4.35584648	     28.94462078	     -3.97061443	      4.99280989	     28.56666914	     28.56666914	      8.75181087	    -11.84284424	      3.09511614	     -8.15756873	      2.63222291	      3.47318173	     56.60956205	    -17.32588720	     -8.42158812	     72.92903463	     45.20814997	      0.00000000	      0.00000000	     -7.98313760	    -10.81027747	     12.52903684	     33.73267000	     43.87786767	      0.00000000	      0.00000000
     45.76228571	     -5.54984236	     -5.70680998	      8.17046820	      0.99852953	      0.91808590	      0.42596847	      1.85120061	     -0.20460472	    -14.18174716	     25.36894814	     25.36894814	     17.34046269	     -0.46416029	     -5.52934806	     28.43183209	     -3.73313240	      4.18976685	     28.65049658	     28.65049658	      9.41644266	    -11.69878277	      2.92422155	     -8.00162578	      2.31063225	      3.71728406	     55.68234911	    -17.40558374	     -8.52134515	     71.66522897	     45.25240950	      0.00000000	      0.00000000	     -6.90467609	    -11.19576542	     12.35631780	     34.01537551	     43.93518083	      0.00000000	      0.00000000
     45.78285714	     -5.47834349	     -5.64827070	      7.66711942	      0.99906581	      0.91898940	      0.42131441	      2.70269934	     -0.95379526	    -13.69882396	     27.83666959	     27.83666959	     16.32739691	     -1.09100097	     -6.80143704	     27.72490174	     -3.64939170	      3.62692576	     28.65600747	     28.65600747	     10.00970235	    -11.59017764	      2.81925190	     -7.99406405	      2.30017232	      3.71406362	     54.50412869	    -17.10132969	     -8.53031535	     70.41228336	     45.29130132	      0.00000000	      0.00000000	     -5.75491746	    -11.56610127	     12.25444320	     34.11179338	     43.98339461	      0.00000000	      0.00000000
     45.80342857	     -5.42422097	     -5.58818969	      7.14733201	      0.99953855	      0.91985865	      0.41681652	      3.81579864	     -1.69374843	    -13.06273656	     30.65264901	     30.65264901	     14.91007186	     -2.15199666	     -8.52122912	     26.98408872	     -3.57758520	      3.00807403	     28.54722010	     28.54722010	     10.53717839	    -11.44313467	      2.75486539	     -7.89110220	      2.28888463	      3.62959222	     53.22579234	    -16.69992153	     -8.54211304	     68.98434309	     45.33571786	      0.00000000	      0.00000000	     -4.50609395	    -11.92049123	     12.21275360	     33.96291940	     44.02895273	      0.00000000	      0.00000000
     45.82400000	     -5.21485002	     -5.62321322	      6.65348798	      0.99998043	      0.92092789	      0.41251109	      4.65284836	     -2.11627334	    -12.15559336	     32.86433821	     32.86433821	     11.00408172	     -5.20679518	    -16.14505822	     26.12211587	     -3.61549506	      2.44567582	     28.49942559	     28.49942559	     11.25063497	    -11.21996553	      2.94117354	     -7.82934510	      2.42111755	      3.32682497	     52.25756308	    -15.82488451	     -8.91645819	     65.80680628	     45.45754715	      0.00000000	      0.00000000	     -2.62130739	    -12.01698968	     12.61637995	     31.85930326	     44.13299361	      0.00000000	      0.00000000
